<?xml version="1.0" encoding="UTF-8" standalone="no"?>
<!-- Created with Inkscape (http://www.inkscape.org/) -->

<svg
   xmlns:dc="http://purl.org/dc/elements/1.1/"
   xmlns:cc="http://creativecommons.org/ns#"
   xmlns:rdf="http://www.w3.org/1999/02/22-rdf-syntax-ns#"
   xmlns:svg="http://www.w3.org/2000/svg"
   xmlns="http://www.w3.org/2000/svg"
   xmlns:sodipodi="http://sodipodi.sourceforge.net/DTD/sodipodi-0.dtd"
   xmlns:inkscape="http://www.inkscape.org/namespaces/inkscape"
   width="1200"
   height="1200"
   id="svg3019"
   version="1.1"
   inkscape:version="0.48.3.1 r9886"
   sodipodi:docname="website.svg">
  <defs
     id="defs3021" />
  <sodipodi:namedview
     id="base"
     pagecolor="#ffffff"
     bordercolor="#666666"
     borderopacity="1.0"
     inkscape:pageopacity="0.0"
     inkscape:pageshadow="2"
     inkscape:zoom="11.313708"
     inkscape:cx="218.33964"
     inkscape:cy="1226.156"
     inkscape:document-units="px"
     inkscape:current-layer="layer1"
     showgrid="true"
     inkscape:window-width="1366"
     inkscape:window-height="710"
     inkscape:window-x="0"
     inkscape:window-y="27"
     inkscape:window-maximized="1"
     showguides="false"
     inkscape:guide-bbox="true"
     guidecolor="#ff0003"
     guideopacity="0.49803922"
     guidehicolor="#ffb700"
     guidehiopacity="0.49803922">
    <inkscape:grid
       type="xygrid"
       id="grid3027"
       empspacing="2"
       visible="true"
       enabled="true"
       snapvisiblegridlinesonly="true"
       spacingx="12px"
       spacingy="12px"
       dotted="false"
       color="#409301"
       opacity="0.1254902"
       empcolor="#409301"
       empopacity="0.25098039"
       originy="0px" />
    <inkscape:grid
       type="xygrid"
       id="grid3011"
       empspacing="16"
       visible="true"
       enabled="true"
       snapvisiblegridlinesonly="true"
       color="#0090ff"
       opacity="0.0627451"
       empcolor="#0090ff"
       empopacity="0.1254902"
       dotted="true" />
    <sodipodi:guide
       orientation="1,0"
       position="600,1104"
       id="guide2989" />
    <sodipodi:guide
       orientation="1,0"
       position="588,1032"
       id="guide2991" />
    <sodipodi:guide
       orientation="1,0"
       position="612,992"
       id="guide2993" />
    <sodipodi:guide
       orientation="1,0"
       position="120,1164"
       id="guide2997" />
    <sodipodi:guide
       orientation="1,0"
       position="132,1152"
       id="guide2999" />
    <sodipodi:guide
       orientation="1,0"
       position="1080,1140"
       id="guide3001" />
    <sodipodi:guide
       orientation="1,0"
       position="1068,1152"
       id="guide3003" />
    <sodipodi:guide
       orientation="1,0"
       position="240,1168"
       id="guide3005" />
    <sodipodi:guide
       orientation="1,0"
       position="228,1176"
       id="guide3007" />
    <sodipodi:guide
       orientation="1,0"
       position="252,1140"
       id="guide3009" />
    <sodipodi:guide
       orientation="1,0"
       position="360,1088"
       id="guide3011" />
    <sodipodi:guide
       orientation="1,0"
       position="480,1024"
       id="guide3013" />
    <sodipodi:guide
       orientation="1,0"
       position="720,1044"
       id="guide3015" />
    <sodipodi:guide
       orientation="1,0"
       position="840,992"
       id="guide3017" />
    <sodipodi:guide
       orientation="1,0"
       position="960,1008"
       id="guide3019" />
    <sodipodi:guide
       orientation="1,0"
       position="348,1068"
       id="guide3021" />
    <sodipodi:guide
       orientation="1,0"
       position="372,1020"
       id="guide3023" />
    <sodipodi:guide
       orientation="1,0"
       position="468,960"
       id="guide3025" />
    <sodipodi:guide
       orientation="1,0"
       position="492,960"
       id="guide3027" />
    <sodipodi:guide
       orientation="1,0"
       position="708,912"
       id="guide3029" />
    <sodipodi:guide
       orientation="1,0"
       position="732,948"
       id="guide3031" />
    <sodipodi:guide
       orientation="1,0"
       position="828,960"
       id="guide3033" />
    <sodipodi:guide
       orientation="1,0"
       position="852,948"
       id="guide3035" />
    <sodipodi:guide
       orientation="1,0"
       position="948,936"
       id="guide3037" />
    <sodipodi:guide
       orientation="1,0"
       position="972,912"
       id="guide3039" />
    <sodipodi:guide
       orientation="0,1"
       position="784,1176"
       id="guide3041" />
  </sodipodi:namedview>
  <metadata
     id="metadata3024">
    <rdf:RDF>
      <cc:Work
         rdf:about="">
        <dc:format>image/svg+xml</dc:format>
        <dc:type
           rdf:resource="http://purl.org/dc/dcmitype/StillImage" />
        <dc:title></dc:title>
      </cc:Work>
    </rdf:RDF>
  </metadata>
  <g
     inkscape:label="bg"
     inkscape:groupmode="layer"
     id="layer1"
     transform="translate(0,147.63782)">
    <text
       xml:space="preserve"
       style="font-size:16px;font-style:normal;font-variant:normal;font-weight:normal;font-stretch:normal;text-align:start;line-height:150%;letter-spacing:0px;word-spacing:0px;text-anchor:start;fill:#000000;fill-opacity:1;stroke:none;font-family:Eau Naturelle;-inkscape-font-specification:Eau Naturelle"
       x="210"
       y="-561.63782"
       id="text3013"
       sodipodi:linespacing="150%"><tspan
         sodipodi:role="line"
         id="tspan3015"
         x="210"
         y="-561.63782" /></text>
    <rect
       style="color:#000000;fill:#333333;fill-opacity:1;fill-rule:nonzero;stroke:none;stroke-width:1.25;marker:none;visibility:visible;display:inline;overflow:visible;enable-background:accumulate"
       id="rect3037"
       width="72"
       height="72"
       x="0"
       y="-243.63782" />
    <path
       sodipodi:type="arc"
       style="color:#000000;fill:#808080;fill-opacity:1;fill-rule:nonzero;stroke:none;stroke-width:5.5506525;marker:none;visibility:visible;display:inline;overflow:visible;enable-background:accumulate"
       id="path3015"
       sodipodi:cx="200"
       sodipodi:cy="-64"
       sodipodi:rx="8"
       sodipodi:ry="8"
       d="m 208,-64 a 8,8 0 1 1 -16,0 8,8 0 1 1 16,0 z"
       transform="translate(0,-147.63782)" />
    <path
       style="color:#000000;fill:#808080;fill-opacity:1;fill-rule:nonzero;stroke:none;stroke-width:4.85682106;marker:none;visibility:visible;display:inline;overflow:visible;enable-background:accumulate"
       d="m 199,-63 13.34375,14.34375 c 1.8634,2.003047 5.00306,-1.136589 3,-3 L 201,-65 z"
       id="path3019"
       inkscape:connector-curvature="0"
       transform="translate(0,-147.63782)"
       sodipodi:nodetypes="csscc" />
    <path
       sodipodi:type="arc"
       style="color:#000000;fill:#ffffff;fill-opacity:1;fill-rule:nonzero;stroke:none;stroke-width:5.5506525;marker:none;visibility:visible;display:inline;overflow:visible;enable-background:accumulate"
       id="path3017"
       sodipodi:cx="200"
       sodipodi:cy="-64"
       sodipodi:rx="7"
       sodipodi:ry="7"
       d="m 207,-64 a 7,7 0 1 1 -14,0 7,7 0 1 1 14,0 z"
       transform="matrix(0.71428571,0,0,0.71428571,57.142857,-165.92354)" />
    <path
       transform="matrix(0.75,0,0,0.75,72,-165.63782)"
       d="m 208,-64 a 8,8 0 1 1 -16,0 8,8 0 1 1 16,0 z"
       sodipodi:ry="8"
       sodipodi:rx="8"
       sodipodi:cy="-64"
       sodipodi:cx="200"
       id="path3038"
       style="color:#000000;fill:#808080;fill-opacity:1;fill-rule:nonzero;stroke:none;stroke-width:5.5506525;marker:none;visibility:visible;display:inline;overflow:visible;enable-background:accumulate"
       sodipodi:type="arc" />
    <path
       sodipodi:nodetypes="csscc"
       inkscape:connector-curvature="0"
       id="path3040"
       d="m 222,-212.63782 7.17187,8.17187 c 1.80458,2.0562 4.05622,-0.1954 2,-2 L 223,-213.63782 z"
       style="color:#000000;fill:#808080;fill-opacity:1;fill-rule:nonzero;stroke:none;stroke-width:4.85682106;marker:none;visibility:visible;display:inline;overflow:visible;enable-background:accumulate" />
    <path
       transform="matrix(0.57142792,0,0,0.57142792,107.71441,-177.06643)"
       d="m 207,-64 a 7,7 0 1 1 -14,0 7,7 0 1 1 14,0 z"
       sodipodi:ry="7"
       sodipodi:rx="7"
       sodipodi:cy="-64"
       sodipodi:cx="200"
       id="path3042"
       style="color:#000000;fill:#ffffff;fill-opacity:1;fill-rule:nonzero;stroke:none;stroke-width:5.5506525;marker:none;visibility:visible;display:inline;overflow:visible;enable-background:accumulate"
       sodipodi:type="arc" />
    <path
       id="path3856"
       style="color:#000000;fill:#808080;fill-opacity:1;fill-rule:evenodd;stroke:none;stroke-width:6.79954952000000024;marker:none;visibility:visible;display:inline;overflow:visible;enable-background:accumulate"
       d="m 205,-171.63783 c 0,2.76143 -2.23858,5 -5,5 -2.76142,0 -5,-2.23857 -5,-5 0,-2.76142 2.23858,-5 5,-5 2.76142,0 5,2.23858 5,5 z m -5,-7.99999 c -4.41828,0 -8,3.58172 -8,8 0,4.41828 3.58172,8 8,8 1.60117,0 3.09296,-0.47111 4.34375,-1.28125 l 8,8.625 c 1.8634,2.00305 5.00306,-1.13659 3,-3 l -8.625,-8 c 0.81013,-1.25078 1.28125,-2.74258 1.28125,-4.34375 0,-4.41828 -3.58172,-8 -8,-8 z" />
    <path
       id="path3056"
       transform="matrix(0.57142792,0,0,0.57142792,107.71441,-137.06643)"
       style="color:#000000;fill:#808080;fill-opacity:1;fill-rule:evenodd;stroke:none;stroke-width:11.89922533;marker:none;visibility:visible;display:inline;overflow:visible;enable-background:accumulate"
       d="m 207,-64 c 0,3.865993 -3.13401,7 -7,7 -3.86599,0 -7,-3.134007 -7,-7 0,-3.865993 3.13401,-7 7,-7 3.86599,0 7,3.134007 7,7 z m -6.99999,-10.500017 c -5.799,0 -10.50001,4.701016 -10.50001,10.500012 0,5.798995 4.70101,10.500012 10.50001,10.500012 2.2291,0 4.26096,-0.729482 5.96094,-1.914065 l 6.56251,7.437508 c 3.15802,3.598354 7.0984,-0.34195 3.50001,-3.500004 l -7.43751,-6.562507 c 1.18457,-1.699982 1.91406,-3.73185 1.91406,-5.960944 0,-5.798996 -4.70101,-10.500012 -10.50001,-10.500012 z"
       inkscape:export-filename="/home/paul/Documents/Side projects/Skeleton theme/_s/img/search.png"
       inkscape:export-xdpi="90.142357"
       inkscape:export-ydpi="90.142357" />
  </g>
  <g
     inkscape:groupmode="layer"
     id="layer2"
     inkscape:label="nav"
     transform="translate(0,200)" />
  <g
     inkscape:groupmode="layer"
     id="layer3"
     inkscape:label="text"
     transform="translate(0,200)" />
</svg>
